<svg id="color_line" height="512" viewBox="0 0 74 74" width="512" xmlns="http://www.w3.org/2000/svg" data-name="color line"><circle cx="37" cy="37" fill="#e1e6e9" r="34"/><path d="m71 37a34 34 0 0 1 -17.74 29.87 34.008 34.008 0 0 0 -35.97-57.57 34 34 0 0 1 53.71 27.7z" fill="#d5d6db"/><circle cx="37" cy="37" fill="#84879c" r="8.813"/><g fill="#323c6b"><path d="m37 46.313a9.313 9.313 0 1 1 9.313-9.313 9.323 9.323 0 0 1 -9.313 9.313zm0-17.625a8.313 8.313 0 1 0 8.313 8.312 8.322 8.322 0 0 0 -8.313-8.312z"/><path d="m43.7 63.661a.5.5 0 0 1 -.123-.984 26.5 26.5 0 0 0 19.023-18.812.5.5 0 0 1 .966.259 27.5 27.5 0 0 1 -19.741 19.521.493.493 0 0 1 -.125.016z"/><path d="m12.577 26.025a.5.5 0 0 1 -.452-.713 27.639 27.639 0 0 1 12.9-13.065.5.5 0 1 1 .437.9 26.632 26.632 0 0 0 -12.432 12.591.5.5 0 0 1 -.453.287z"/><path d="m16.375 68.187a.5.5 0 0 1 -.275-.087c-.341-.231-.68-.464-1.013-.7a.5.5 0 0 1 .586-.811c.324.235.654.462.987.686a.5.5 0 0 1 -.28.915z"/><path d="m12.448 65.125a.5.5 0 0 1 -.333-.125 37.825 37.825 0 0 1 -7.482-9.093.5.5 0 0 1 .867-.507 36.811 36.811 0 0 0 7.285 8.853.5.5 0 0 1 -.333.874z"/><path d="m50 2.873a.5.5 0 0 1 -.177-.032c-.447-.169-.9-.327-1.356-.478a.5.5 0 1 1 .316-.949c.468.156.934.318 1.394.492a.5.5 0 0 1 -.177.967z"/><path d="m62.375 10.61a.5.5 0 0 1 -.343-.136 36.711 36.711 0 0 0 -8.756-6.123.5.5 0 0 1 .448-.894 37.7 37.7 0 0 1 8.994 6.289.5.5 0 0 1 -.343.864z"/></g><circle cx="37" cy="37" fill="#fff" r="5.417"/><path d="m37 42.917a5.917 5.917 0 1 1 5.917-5.917 5.923 5.923 0 0 1 -5.917 5.917zm0-10.833a4.917 4.917 0 1 0 4.917 4.916 4.922 4.922 0 0 0 -4.917-4.917z" fill="#323c6b"/><path d="m37 71.5a34.5 34.5 0 1 1 34.5-34.5 34.539 34.539 0 0 1 -34.5 34.5zm0-68a33.5 33.5 0 1 0 33.5 33.5 33.538 33.538 0 0 0 -33.5-33.5z" fill="#323c6b"/></svg>